PathFileType	4	(X/Y/Z)	C:\Users\WrightLab\Desktop\Jo\P5V16.trc
DataRate	CameraRate	NumFrames	NumMarkers	Units	OrigDataRate	OrigDataStartFrame	OrigNumFrames
100.00	100.00	       20	19	mm	100.00	480	       767
Frame#	Time	Headset_Front			Headset_Back			Headset_Left			Headset_Right			Left_Shoulder			Right_Shoulder			Sternum			C7			Left Elbow			Right Elbow			Left Wrist			Right Wrist			Left ASIS			Right ASIS			S2			Left Knee			Right Knee			Left Ankle			Right Ankle			
		X1	Y1	Z1	X2	Y2	Z2	X3	Y3	Z3	X4	Y4	Z4	X5	Y5	Z5	X6	Y6	Z6	X7	Y7	Z7	X8	Y8	Z8	X9	Y9	Z9	X10	Y10	Z10	X11	Y11	Z11	X12	Y12	Z12	X13	Y13	Z13	X14	Y14	Z14	X15	Y15	Z15	X16	Y16	Z16	X17	Y17	Z17	X18	Y18	Z18	X19	Y19	Z19	

480	4.790	220.67947	1556.61658	1020.95435							105.31482	1617.73303	943.10516	397.37238	1546.58508	672.89850	31.30593	1467.01489	870.28113	271.52383	1357.62415	867.26904	150.17863	1527.05408	669.78912	498.49277	1274.52881	606.86584	-85.97470	1215.77710	760.93585	543.69855	1186.61865	810.13763	-41.46849	1077.91016	947.06372	415.57443	972.69025	795.39166	174.37859	972.26263	923.67297	183.85547	989.19415	600.82080	472.26056	512.99982	718.46899	286.80859	546.25073	929.80237	240.09723	239.05238	457.35373	303.89127	119.22847	799.91742	
481	4.800	223.37828	1558.16101	1028.39893							109.89235	1618.01660	949.59760	402.33438	1547.41614	681.84900	34.76708	1467.49841	875.89050	275.02036	1358.91406	874.68945	154.89195	1528.39661	676.31317	504.56622	1276.10510	615.11615	-80.99126	1216.71704	766.18469	547.76172	1187.78784	818.64691	-37.38577	1080.23059	953.60712	421.89398	974.27069	803.78888	177.85835	972.88281	929.63043	188.70251	990.37646	610.30627	485.83179	516.99292	733.87207	286.96753	544.63208	937.78107	255.70009	246.42746	467.24496	303.48636	120.42709	800.89502	
482	4.810	227.32048	1559.33508	1034.98828							112.35570	1618.76001	956.15839	406.84213	1548.77905	690.12244	37.18854	1469.08435	881.51941	278.53757	1360.36621	881.67517	159.71530	1529.61572	682.79749	508.84821	1277.21387	622.73401	-75.90710	1217.43591	770.98181	552.28735	1188.51294	826.81226	-32.87471	1083.60352	960.15320	427.62781	975.59143	811.89832	180.95558	974.15955	934.45123	192.73140	991.88068	619.22009	499.13651	521.89362	748.24463	285.44418	543.46185	944.99561	271.02786	254.98500	477.56897	303.56473	120.45789	801.03613	
483	4.820	229.77914	1560.58374	1041.76697							115.76411	1619.47974	962.56177	411.92953	1549.85364	697.62958	41.16087	1470.38892	886.51379	281.85159	1362.00818	889.23956	164.55550	1530.92114	689.14001	514.63550	1277.59485	631.79480	-71.22857	1218.32373	776.49451	555.10132	1189.12549	835.44763	-28.18027	1086.71667	967.09064	434.53937	977.36597	819.93945	183.74278	975.88611	940.80719	197.09334	993.55109	627.38727	511.19199	527.02612	761.58032	283.44339	542.07281	951.42047	285.56241	262.38327	487.79221	303.49103	120.58226	801.23193	
484	4.830	233.12096	1561.88831	1048.33923							118.63042	1620.80310	969.00031	416.52039	1551.36743	705.53503	44.12515	1471.53821	891.44446	284.93359	1363.17969	896.49469	169.32707	1532.12244	695.52051	519.29150	1279.50793	641.32471	-66.81642	1219.50012	781.05939	559.15924	1190.21350	843.60803	-24.52334	1089.99780	973.70062	439.79453	978.88153	828.34467	185.74361	977.27844	945.63226	201.62115	994.95557	636.11707	522.63141	532.19702	774.87958	280.21771	540.58490	957.86383	300.57843	269.29044	500.29340	303.57043	120.62510	801.36182	
485	4.840	235.80107	1563.00024	1055.59338							120.89442	1622.63000	975.55890	420.96521	1552.62708	713.89740	46.93334	1473.71155	896.86896	287.98853	1365.18066	904.02710	174.14671	1533.46411	701.72375	524.33167	1281.05054	649.33118	-62.84093	1220.74585	786.50574	562.58826	1190.85278	852.29108	-20.20813	1092.84973	980.20911	444.99701	980.19000	836.44275	187.87389	979.12537	952.96686	206.86546	996.06476	644.30127	533.02985	537.24969	787.98560	276.19839	539.32800	963.83112	315.30383	274.84036	513.92371	303.42395	120.80573	801.49884	
486	4.850	237.80994	1564.68958	1062.06616							124.08916	1623.98096	981.84583	425.02457	1554.04456	721.77325	50.03938	1475.42517	901.57971	290.05139	1366.12170	910.93781	178.87361	1534.61487	707.91516	529.28204	1281.67236	657.67273	-58.09282	1222.04834	791.17902	565.68445	1191.90820	861.50482	-15.81001	1095.94397	986.61230	450.44168	982.64221	845.15808	189.21404	980.20032	958.61584	210.96884	997.71942	650.03711	541.83173	542.39307	801.38068	271.58167	537.68945	969.24939	329.89645	279.05954	526.96808	303.32892	121.05388	801.60059	
487	4.860	240.21486	1565.86487	1068.60449							126.89677	1625.32446	987.89185	429.63684	1555.26257	729.77356	52.79306	1477.24487	906.53961	292.50723	1367.71375	918.37885	183.37169	1535.93359	714.16064	533.68103	1283.58093	667.08197	-54.51026	1223.66711	796.73163	569.22607	1192.50525	869.57422	-12.62127	1099.78345	992.81158	455.71332	984.26257	854.57202	190.21719	981.54938	964.21985	216.42595	999.57880	657.35236	549.86938	547.36530	814.88776	264.94745	534.15405	971.40948	344.52686	282.57440	541.63989	303.28717	121.29254	801.65424	
488	4.870	242.33858	1567.11194	1075.09338							128.85884	1626.63110	993.85919	433.93646	1556.64331	737.65088	55.28726	1478.72778	911.80096	294.58609	1369.33960	925.90649				538.80750	1284.49329	676.34106	-50.38698	1225.14917	801.35291	572.45099	1193.03821	878.69116	-9.25578	1103.00098	999.05896	460.48260	985.92365	863.82471	191.94420	983.39703	970.52899	222.56670	1000.13336	665.09143	556.49640	551.14795	828.73175	260.33957	532.73572	979.49310	358.66232	285.07681	557.12781	302.98764	121.72204	802.21527	
489	4.880	243.57642	1568.72205	1082.08350							131.15938	1627.58740	999.57385	438.51074	1557.15674	747.54395	58.11288	1480.78259	917.40411	297.27634	1370.65308	933.39343	192.29886	1538.32886	726.70935	543.65344	1285.06152	684.88409	-46.77543	1226.44897	806.28784	575.60028	1194.15186	887.91101	-6.03591	1106.00073	1004.78925	464.72925	987.36060	873.93170	192.78827	984.52399	977.19818	229.43985	1000.93091	670.79388	562.52057	555.15070	842.21539	253.68033	529.72833	984.47687	373.41769	286.72330	572.38190	303.11676	122.40800	802.69598	
490	4.890	245.26540	1570.16077	1088.59070							133.71358	1628.57239	1005.32343	442.20712	1558.18958	755.16351	61.08997	1482.28699	922.42188	299.47388	1371.99011	941.24731	196.57913	1539.51978	733.15033	548.33344	1286.46130	693.14691	-43.78716	1228.17444	811.60504	579.11243	1194.98340	896.56512	-2.80994	1109.09131	1010.62823	469.08093	989.22394	884.47803	194.13254	985.24420	984.06641	236.06424	1001.82959	677.42114	567.22583	558.54370	855.45166	247.59027	526.44617	989.20496	387.54373	287.28680	588.68756	303.35526	122.65701	802.76282	
491	4.900	247.27820	1570.90881	1095.20032							135.07422	1630.19666	1011.43915	446.33084	1558.93726	763.45496	63.94075	1483.78369	927.50507	301.34973	1372.84790	948.46918	200.95506	1540.64197	739.54456	552.94165	1287.14038	702.76849	-40.19651	1229.75916	815.97327	582.14691	1195.73254	905.89545	-0.17294	1112.16235	1016.30737	472.81100	990.38306	895.55060	194.30731	986.54517	991.82123	242.91025	1002.34595	683.65137	571.78455	561.54614	870.02997	240.75917	522.71228	993.36444	401.22079	286.90732	605.09290	304.20816	123.02789	803.15326	
492	4.910	247.65523	1572.71692	1102.87927							137.49710	1631.50256	1017.27753	450.70569	1560.11963	772.79559	66.08904	1485.15564	933.12079	303.34454	1374.26538	955.69861	205.27417	1541.77380	746.04449	556.72491	1288.34851	711.22992	-37.04734	1231.21033	821.10126	585.09064	1196.61572	915.26971	2.40404	1115.10254	1021.90045	476.00150	991.31116	906.29718	196.78581	989.66138	998.76733	250.89818	1002.47040	688.81445	574.64923	563.83197	884.49536	234.91876	518.78229	997.14325	415.28326	285.18063	621.40503	304.50131	123.42532	803.15601	
493	4.920	248.51358	1574.21472	1109.67786							139.04951	1633.25146	1023.21674	454.59982	1560.61560	781.77136	68.65882	1486.05359	938.46729	306.16876	1375.04614	962.70813	209.52626	1542.81812	752.68884	560.46802	1288.95776	719.68829	-34.34719	1232.35840	826.26086	587.51093	1197.13794	924.11768	5.56957	1117.36816	1026.98352	479.13779	992.99420	916.38892	197.43831	989.82269	1004.92023	258.62518	1002.99438	695.01111	577.42908	566.05792	899.00079	229.50854	515.65326	1000.31757	429.34961	282.92917	639.63605	304.49896	123.85165	803.62793	
494	4.930	249.74562	1575.41248	1116.74866							140.30725	1634.66284	1029.12610	458.15277	1560.87317	789.59509	71.78979	1487.14954	943.47925	308.04047	1375.73816	970.26447	213.65198	1543.99597	759.28894	564.89978	1289.69165	729.09863	-30.99095	1233.83398	830.54547	590.21899	1197.76392	933.02496	7.82553	1120.00208	1032.61682	482.03137	994.00507	926.91962	198.75700	991.13916	1011.81464	265.59442	1003.82196	699.91199	579.68347	568.09906	913.18121	227.80042	515.02484	1001.18915	443.46893	279.67551	657.65771	304.65112	124.30093	803.72156	
495	4.940	249.91397	1576.97510	1123.87781							141.71947	1635.61792	1034.96936	463.44775	1561.77783	799.36029	74.20371	1488.69446	948.41156	310.00668	1376.31287	977.73016	217.82892	1544.87195	765.94995	568.84625	1290.23962	738.99628	-28.76266	1235.53906	835.41913	593.08569	1198.47156	942.91595	9.94566	1122.67700	1038.31750	484.11325	994.40784	936.87433	199.76163	991.59778	1017.91656	273.88281	1003.83801	705.74609	580.91150	570.17078	927.18329	227.33507	514.93695	1001.34509	457.39267	275.31897	676.30658	304.73505	124.67271	803.80585	
496	4.950	250.39589	1578.32861	1130.88171							143.19427	1636.59460	1040.88733	467.11636	1561.95044	809.58838	76.25853	1489.35205	954.02014	311.19177	1377.01086	984.95526	222.09550	1545.76050	772.61786	573.08038	1290.91162	748.43994	-26.12928	1236.49646	840.52972	594.92517	1199.01611	954.05499	11.85529	1124.52759	1043.47168	486.10028	994.90479	946.42090	201.07947	992.55267	1024.40320	280.99127	1004.41791	711.88312	581.85852	571.77454	941.16626	227.10109	514.96503	1001.83337	471.11087	271.01434	695.35254	304.82025	125.05875	804.34503	
497	4.960	250.97250	1579.09009	1138.31226							144.76611	1637.42371	1046.99109	469.92633	1562.16052	817.28833	78.37664	1490.61108	959.25946	312.39404	1377.27161	992.50208	226.21780	1546.54895	779.30536	575.91028	1291.17407	758.11542	-23.06247	1237.74951	845.08282	597.87146	1198.97437	963.47821	13.89679	1126.62488	1048.88184	488.18677	995.69305	956.62616	202.16071	992.70905	1029.47559	287.97479	1005.12665	717.15442	582.12750	573.17834	954.74213	227.23868	514.39124	1002.25159	485.95663	265.02872	715.68793	304.92691	125.61487	804.86353	
498	4.970	251.59949	1580.16638	1145.48035							146.02631	1638.73108	1053.21362	473.96802	1562.18237	827.29590	79.87300	1492.03723	965.00940	314.07819	1378.03735	999.84430	230.17662	1547.29541	786.14038	578.78412	1290.63708	766.32147	-20.85319	1238.98035	849.82172	600.37146	1199.32129	973.10498	15.51553	1128.71021	1054.39600	489.84219	995.86462	966.38184	203.09152	993.19983	1035.81995	294.59735	1005.56226	722.80957	581.56598	574.07190	968.51917	227.67525	513.94696	1002.43109	499.41116	258.60205	736.30408	304.98132	125.99392	805.11938	
499	4.980	252.08865	1581.20251	1152.69080							147.50194	1639.38855	1059.58289	478.08667	1562.86365	836.99670	81.74500	1492.91406	970.62103	315.53738	1378.05750	1007.47968	234.25568	1547.94458	793.01349	583.87067	1290.99573	777.64618	-18.30543	1240.07617	854.95148	602.27161	1199.39880	983.13342	17.01514	1130.44641	1059.52783	490.94604	995.73914	976.06171	203.06981	993.30817	1041.04944	301.46765	1005.66046	728.75378	580.94757	574.92474	982.17218	227.73141	513.85431	1003.41040	513.62415	252.17392	757.82379	305.31143	126.82845	805.49799	
